# xmcd
#
# Track frame offsets: 
#        182
#        17025
#        30730
#        49142
#        80670
#        95160
#        111280
#        130575
#        147900
#        165130
#
# Disc length: 2454 seconds
#
# Revision: 3
# Processed by: cddbd v1.5.2PL0 Copyright (c) Steve Scherf et al.
# Submitted via: ExactAudioCopy v1.0b1
#
DISCID=7d09940a
DTITLE=Spinners - Spinners Rhino 1995
DYEAR=1973
DGENRE=Soul
TTITLE0=Just Can't Get You Out Of My Mind
TTITLE1=Just You And Me Baby
TTITLE2=Don't Let The Green Grass Fool You
TTITLE3=I Could Never (Repay Your Love)
TTITLE4=I'll Be Around
TTITLE5=One Of A Kind (Love Affair)
TTITLE6=We Belong Together
TTITLE7=Ghetto Child
TTITLE8=How Could I Let You Get Away
TTITLE9=Could It Be I'm Falling In Love
EXTD=
EXTT0=
EXTT1=
EXTT2=
EXTT3=
EXTT4=
EXTT5=
EXTT6=
EXTT7=
EXTT8=
EXTT9=
PLAYORDER=
